<svg xmlns="http://www.w3.org/2000/svg" xmlns:xlink="http://www.w3.org/1999/xlink" width="800" height="652.681"><defs><path id="a" d="M0 0h800v652.68H0z"/></defs><use xlink:href="#a" overflow="visible" fill="#B81420"/><path fill="#FFF" d="M648.516 326.047c0-89.406-67.982-95.736-82.217-95.736-22.104 0-43.435 4.594-65.883 13.441l-1.583 23.558c8.736-4.099 36.721-16.117 64.618-16.117 21.961 0 38.886 7.366 50.336 21.905-75.585 39.758-120.673 71.725-127.479 98.248-19.345 13.079-53.437 28.174-83.764 28.174-32.319 0-46.212-13.956-52.271-22.06 82.937-55.795 125.927-87.983 120.66-113.394-4.737-22.93-38.805-33.688-69.321-33.688-31.24 0-52.692 13.482-62.849 23.952-16.328 16.839-24.103 41.798-23.105 74.168.439 14.154 3.223 28.905 7.933 41.843-12.719 8.271-47.372 29.22-87.162 29.22-47.258 0-66.695-36.926-66.695-74.193 0-36.127 18.166-74.223 66.695-74.223 27.297 0 54.716 11.521 64.054 15.854l-1.576-23.511c-17.618-6.886-40.819-13.112-60.89-13.112-80.366 0-87 67.456-86.633 94.949-.366 27.543 6.98 94.999 85.891 94.999 47.748 0 88.294-26.214 95.691-30.977 5.125 8.943 25.439 30.987 69.36 30.987 34.781 0 73.386-17.303 86.267-25.637 7.89 10.561 24.03 25.688 73.288 25.688 32.56 0 53.192-11.294 66.126-26.824.244 8.181.54 16.145.914 22.272l19.71 3.035c-.659-20.534-.115-91.734-.115-92.821m-313.701 11.338c-.063-.418-5.498-42.227 16.773-67.774 11.534-13.22 28.571-19.92 50.617-19.92 23.772 0 43.699 8.275 45.758 17.801 1.537 7.121-5.203 16.248-35.916 40.853-.316.271-31.362 26.607-71.436 50.383-2.533-6.408-4.483-13.596-5.796-21.343m277.747 43.748c-11.534 13.222-28.871 19.022-50.925 19.212-50.259.438-55.148-18.625-55.148-18.625-5.204-11.687 11.757-35.274 116.804-90.943 2.568 6.454 4.729 14.767 6.041 22.582.069.418 5.506 42.227-16.772 67.774"/><defs><filter id="b" filterUnits="userSpaceOnUse" x="170.893" y="482.721" width="458.204" height="19.496"><feFlood result="back" flood-color="#fff" flood-opacity="1"/><feBlend in="SourceGraphic" in2="back"/></filter></defs><g mask="url(#c)"><defs><path id="d" d="M170.893 482.721h458.204v19.496H170.893z"/></defs><use xlink:href="#d" overflow="visible" fill="#73BE4B"/><clipPath id="e"><use xlink:href="#d" overflow="visible"/></clipPath><g clip-path="url(#e)"><defs><path id="f" d="M170.893 482.721h458.204v19.496H170.893z"/></defs><use xlink:href="#f" overflow="visible" fill="#76B72A"/><clipPath id="g"><use xlink:href="#f" overflow="visible"/></clipPath><path clip-path="url(#g)" fill="#76B72A" d="M170.893 482.721h458.204v19.496H170.893z"/></g></g></svg>
