<svg xmlns="http://www.w3.org/2000/svg" viewBox="0 0 378.136 252.093"><path fill="#fff" d="M-7.561-7.324h393.26v267.125H-7.561z"/><path fill="#254aa5" d="M0 0h378.136v252.093H0z"/><path fill="#fff200" d="M181.011 54.927l7.979-5.823 7.98 5.823-3.038-9.416 8.106-5.824h-9.99l-3.058-9.531-3.058 9.541-9.984-.01 8.1 5.824zM139.72 66.02l7.978-5.822 7.975 5.822-3.032-9.416 8.1-5.824h-9.991l-3.057-9.541-3.056 9.552-9.986-.01 8.099 5.823zM117.485 71.52l-3.057 9.552-9.984-.01 8.098 5.822-3.036 9.418 7.979-5.823 7.979 5.823-3.036-9.418 8.098-5.822h-9.984zM106.402 131.718l7.973 5.823-3.03-9.416 8.098-5.823h-9.984l-3.057-9.542-3.058 9.562-9.99-.02 8.105 5.823-3.036 9.416zM120.542 163.666l-3.057-9.541-3.057 9.552-9.984-.01 8.098 5.822-3.036 9.417 7.979-5.833 7.979 5.833-3.036-9.417 8.098-5.823zM150.813 193.937l-3.057-9.53-3.052 9.54-9.99-.01 8.1 5.823-3.032 9.417 7.98-5.824 7.972 5.824-3.03-9.417 8.098-5.823zM192.053 204.906l-3.058-9.542-3.052 9.552-9.989-.01 8.099 5.822-3.031 9.418 7.979-5.824 7.973 5.824-3.036-9.418 8.104-5.822zM233.292 193.937l-3.052-9.53-3.062 9.54-9.98-.01 8.094 5.823-3.03 9.417 7.978-5.824 7.979 5.824-3.041-9.417 8.104-5.823zM263.573 163.666l-3.062-9.541-3.063 9.552-9.979-.01 8.104 5.822-3.04 9.417 7.978-5.833 7.98 5.833-3.043-9.417 8.104-5.823zM284.521 122.187h-9.989l-3.063-9.541-3.052 9.552-9.989-.011 8.104 5.823-3.032 9.417 7.97-5.833 7.978 5.833-3.03-9.417zM252.532 96.177l7.979-5.823 7.98 5.823-3.042-9.416 8.104-5.814h-9.98l-3.062-9.541-3.062 9.552-9.98-.01 8.104 5.813zM230.355 41.25l-3.052 9.551-9.99-.02 8.094 5.832-3.03 9.418 7.988-5.834 7.968 5.834-3.03-9.418 8.104-5.833h-10z"/></svg>
