<svg xmlns="http://www.w3.org/2000/svg" viewBox="0 0 49.066 35.084"><g fill-rule="evenodd" clip-rule="evenodd"><path fill="#005eb8" d="M0 24.331l2.639-16.69h3.397l-1.004 6.361H8.93l1.004-6.361h3.397l-2.648 16.69H7.296l1.172-7.385H4.56l-1.162 7.385zm18.758 10.752l-1.694-10.752h1.841v-3.545h.946c2.6 0 3.535-.758 3.535-3.771v-2.166c0-2.304-1.142-3.082-3.25-3.082h-2.255L15.892 24.33h-2.806l1.99-12.564-1.114-6.972L44.261 0l1.92 12.121a5.08 5.08 0 00-2.659-.522h-1.034c-2.166 0-2.767 1.064-2.452 3.092l1.113 7.03c.256 1.645 1.201 2.728 3.358 2.728h1.053c1.231 0 2.029-.177 2.472-.65l1.034 6.5zm.985-16.591h-.837v-4.43h.807c.492 0 .65.127.65.54v2.974c0 .69-.217.916-.63.916m4.953-6.725V24.33h5.74v-2.304h-2.855v-3.112h2.461V16.75h-2.461l-.01-2.678h2.658v-2.304zm10.93 1.733l.669 5.632h-1.379l.68-5.632zm-2.384-1.733l-1.9 12.564h2.954l.364-3.033h1.881l.364 3.033h2.954l-1.9-12.564zm11.235 2.658l.256 1.635h2.098l.57 3.594h-2.087l.315 1.97c.06.374-.177.521-.65.521-.472 0-.748-.148-.807-.532l-1.142-7.188c-.06-.374.167-.531.66-.531.462 0 .738.157.797.531"/><path fill="#ffe800" d="M15.735 7.631h2.796l-.393 2.472H15.34z"/></g></svg>
