<svg xmlns="http://www.w3.org/2000/svg" viewBox="0 0 49.0658 35.0835"><g fill-rule="evenodd" clip-rule="evenodd"><path fill="#005eb8" d="M0 24.331l2.6389-16.69h3.397L5.0317 14.002h3.8992L9.9352 7.641h3.3972l-2.6488 16.69H7.2963l1.1718-7.385H4.559l-1.162 7.385zm18.7578 10.7525L17.0642 24.331h1.8413v-3.5448h.9453c2.5995 0 3.535-.7582 3.535-3.7713v-2.1662c0-2.3042-1.1423-3.082-3.2494-3.082h-2.255l-1.989 12.5642h-2.8063l1.989-12.5643-1.1126-6.9714L44.2606 0l1.92 12.1212a5.0809 5.0809 0 0 0-2.6585-.5219h-1.034c-2.1661 0-2.7668 1.0635-2.4517 3.0919l1.1126 7.0305c.256 1.6443 1.2014 2.7274 3.3578 2.7274h1.0536c1.2307 0 2.0284-.1772 2.4714-.6498l1.034 6.4988zm.9847-16.5916h-.837v-4.4308h.8074c.4924 0 .65.128.65.5415v2.9737c0 .6892-.2167.9157-.6302.9157m4.9528-6.7252V24.331h5.7406v-2.304h-2.8556v-3.1116h2.4617v-2.1662h-2.4616l-.0098-2.6783h2.6585v-2.3041zm10.9297 1.733l.6696 5.6323h-1.3785l.6794-5.6323zm-2.3829-1.733L31.332 24.331h2.954l.3643-3.0327h1.8807l.3643 3.0328h2.954l-1.9004-12.5643zm11.235 2.6586l.256 1.6345h2.0975l.571 3.594h-2.0875l.3151 1.9694c.0591.3742-.1772.5218-.6498.5218-.4727 0-.7484-.1477-.8075-.5317l-1.1422-7.188c-.0591-.3742.1674-.5318.6597-.5318.4628 0 .7385.1576.7976.5318"/><path fill="#ffe800" d="M15.7349 7.6311h2.7964l-.3938 2.4715H15.341z"/></g></svg>
