<svg xmlns="http://www.w3.org/2000/svg" width="600.1" height="267.1"><path d="M158.5 125.3c-21.4 0-23.1-16.3-23.1-21.1 0-5.7 1.3-16.3 15.2-21.4 13.9-5.1 16.9-5.7 26.8-8.8v-2.4c0-4.8 0-5.7-1.1-8.8-1.7-5.5-7.1-9.2-14.6-9.2-7.1 0-13.2 4-16 9.9l-4-2.4c2.4-8.8 11.5-17.6 27.1-17.6 10.8 0 18.3 3.1 22.7 9.9 3.3 5.5 3.7 12.9 3.7 20.4 0 6.8-.4 14.3-.4 20.4 0 4-.4 7.9-.4 10.1 0 5.5 1.1 9.9 5.5 9.9 2 0 2.4-.7 4-1.7l2.4 3.1c-4 5.5-8.8 9.9-16.7 9.9-6.1 0-10.5-3.1-12.3-8.1-2.5 3.5-9 7.9-18.8 7.9zm18.9-41.5c-10.5 3.1-14.3 4.8-17.3 6.4-4.8 2.4-6.8 6.8-6.8 12.5 0 4.4 1.7 11.5 11.9 11.5 3.3 0 8.1-.7 12.5-3.7V83.7h-.3zM.7 121.1c0-7.9 0-14.6-.7-22.7h4.8c0 5.1 1.3 8.8 3.7 11.2 3.3 3.7 11.2 6.1 18.3 6.1 14.9 0 22-5.7 22-18 0-10.5-6.4-14.9-15.2-21.1l-1.3-1.1-9.5-6.4c-13.2-8.8-20-15.6-20-29.5 0-6.8 2.7-29.2 35.6-29.2 8.5 0 19.3 1.1 25.8 2 0 1.1-.4 6.1-.4 10.5 0 5.1 0 6.4.4 12.5h-4c0-5.5-1.7-8.8-4-11.2-3.1-3.1-10.1-4.8-17.6-4.8C21 19.4 19 28.2 19 35c0 9.2 4.8 12.5 15.2 19.3l11.9 7.9C56.2 69 65.7 75.4 65.7 92.4c0 28.5-26.8 31.5-38 31.5-10.3 1.4-18.9-.1-27-2.8zm213-72.5c4 .4 10.1 0 16-1.1 5.1-1.1 6.8-1.7 10.5-3.3l1.7 1.1v6.1c4-3.1 11.9-7.5 23.1-7.5 14.3 0 23.5 6.8 26.1 18.7.7 3.1 1.1 10.1 1.1 14.3V100c0 12.9.7 16.7 3.1 19 1.3 1.1 4 2.4 7.9 2.4v3.7c-5.1-.4-14.3-.7-19.6-.7-7.1 0-15.2.4-19.6.7v-3.7c4-.4 6.4-1.7 7.9-2.7 2.4-2.4 2.7-6.8 3.1-16.7 0-3.1.4-9.2.4-13.6 0-5.7 0-11.9-.7-18-1.1-10.1-6.4-14.9-16.7-14.9-7.1 0-11.5 1.7-14.9 3.3v41.4c0 12.9.7 16.7 3.1 19 1.3 1.1 4.4 2.4 7.5 2.4v3.7c-6.4-.4-14.3-.7-19.3-.7-10.5 0-13.9.4-20 .7v-3.9c3.3 0 6.8-1.3 8.5-3.3 2.4-2.7 2.7-9.5 2.7-22.7V71.9c0-9.9-.4-13.9-1.7-16-1.1-1.7-3.7-3.1-9.2-3.1v-4.4h-.7v.2zm98.1 72.3c3.3 0 6.8-1.1 8.5-3.3 2.4-2.7 2.7-9.5 2.7-22.7V55.4h-10.1V51c4.4-1.7 8.1-3.7 10.1-5.5 0-7.1.4-16 1.3-21.1C327.4 8.1 337.9 0 355.8 0c7.9 0 15.2 2.7 20 6.4l.4 1.7-7.9 10.8h-2c-2.7-6.4-6.8-10.1-13.9-10.1-2.4 0-5.7.7-7.9 2.7-3.3 3.3-4 8.5-4 18.7v15.2h17.6v9.9h-17.6v43.8c0 10.5.4 15.6 1.7 17.6 2 3.3 9.2 3.7 12.5 3.7v4c-5.7-.4-14.9-.7-21.4-.7-9.9 0-16.3.4-21.4.7zm90.9 5c-24 0-38.3-14.9-38.3-40 0-19.6 10.5-42.4 40-42.4 24 0 38.3 14.9 38.3 40 0 19.6-10.6 42.4-40 42.4zm1-73.3c-4.8 0-8.5 1.3-11.2 3.7-6.4 5.5-9.5 14.9-9.5 28.8 0 5.5 1.1 31.9 20.4 31.9 4.8 0 8.5-1.3 11.2-3.7 6.4-5.5 9.5-14.9 9.5-28.8-.1-5.4-1-31.9-20.4-31.9zm47.1-4.4c5.5.4 11.2-.4 17.3-1.3 4.8-.7 7.9-1.7 9.5-2.7l1.3.7v6.8c3.7-3.7 9.9-7.5 18.3-7.5 6.1 0 10.1 1.7 13.9 4.8v2.4l-6.8 12.3H501c-2-3.7-6.1-7.1-13.2-7.1-3.3 0-6.1.7-8.5 2.4v40.4c0 10.5.4 15.2 1.7 17.3 2 3.3 8.8 3.7 12.5 3.3v4.4c-5.5-.4-14.9-.7-21.4-.7-7.5 0-15.2 0-21.4.7v-4c4.4-.4 6.8-1.3 8.5-3.3 2.4-2.7 2.7-9.2 2.7-22.7v-22c0-9.9 0-13.9-1.7-16-1.3-1.7-4-2.7-9.2-2.7v-5.1zm111-43.4c4.8 0 10.8-1.1 18.7-2.4 4.4-.7 7.1-1.7 8.5-2l1.3.7c-.7 6.4-.7 21.1-.7 31.5V97c0 9.5 0 15.6 1.3 17.6 1.3 1.7 4 3.1 9.2 3.1v4c-5.1 0-10.8.7-16.9 1.7-4 .7-7.1 1.3-8.8 2l-2-.7v-6.8c-4 3.1-11.5 7.5-22 7.5-21.7 0-35.6-14.9-35.6-38.3 0-7.9 1.3-14.9 4-21.4 6.8-14.3 20.4-22.4 37.6-22.4 6.4 0 11.9.7 15.2 1.3V27.9c0-9.9 0-14.9-1.7-17.3-1.1-1.7-2.7-2.4-8.5-2.7V4.7h.4zM559 114.3c5.5 0 9.2-.7 12.9-3.1V58.4c-1.3-1.3-6.1-5.5-15.6-5.5-15.2 0-22.7 10.5-22.7 32.3-.3 9.1 2.4 29.1 25.4 29.1zm-431.4 2.4c-2.4 3.1-8.5 9.2-21.4 9.2-12.3 0-19-4.4-22-14.3-1.3-3.7-1.3-11.5-1.3-16 0-12.5 0-22.7.4-34.6v-5.5H72.7v-3.1c4-1.7 7.1-3.3 9.9-5.5 6.1-4.8 10.1-10.5 14.6-19h3.3v17.6h26.8v9.9h-26.8v41.4c0 12.5 2.4 19.3 13.9 19.3 5.5 0 9.2-1.7 11.2-3.1zm375.9 74c-1.3 0-3.1.4-4 1.3-1.1.7-1.1 1.7-1.1 2.4 0 1.3.4 2.4 1.3 5.1l7.5 19.6c1.1 3.1 2 5.5 2.4 7.1l9.2-26.8c1.1-3.1 1.3-3.7 1.3-5.1 0-.7-.4-1.3-1.1-2-1.1-.7-2.4-1.3-4-1.3v-3.1c1.1 0 3.3 0 4.4.4 1.1 0 3.1.4 4.8.4 3.3 0 8.1-.4 10.1-.4v3.1c-1.3.4-4.4-.4-7.1 7.5l-19.3 51.5c-2.7 7.5-6.4 16.7-19.6 16.7-5.5 0-9.2-1.3-12.3-4v-1.3l4.8-5.7h1.3c1.3 3.1 4 4.4 7.9 4.4 6.1 0 8.8-5.5 12.9-16.3l1.1-3.1-16.2-42.3c0-.4-.4-1.1-.7-1.7-.4-1.1-1.3-3.1-1.3-3.1-1.1-2-2.7-2.7-4.8-2.7v-3.1c3.1.4 8.5.4 11.2.4 1.7 0 4.4 0 7.1-.4 1.3 0 3.7-.4 4.8-.4v2.7h-.4v.2zm-179.6-.7c3.3.4 7.1-.4 10.8-1.1 3.1-.7 4.8-1.1 6.1-1.7l1.1.4v4.4c2.4-2.4 6.1-4.8 11.5-4.8 4 0 6.4 1.1 8.8 3.1v1.7l-4 7.9h-2c-1.3-2.4-3.7-4.4-8.5-4.4-2 0-3.7.7-5.5 1.7v25.5c0 6.8.4 9.9 1.1 11.2 1.3 2 5.5 2.4 7.9 2.4v2.7c-3.3-.4-9.5-.4-13.6-.4-4.8 0-9.9 0-13.6.7v-2.7c2.7 0 4.4-1.1 5.5-2 1.7-1.7 1.7-5.7 1.7-14.6v-14.3c0-6.1 0-8.8-1.1-10.1-.7-1.1-2.7-1.7-5.7-1.7v-3.7h-.5zM98.1 239.2c-14.3 0-22.7-4.4-25.8-13.9-1.7-4.8-1.7-10.8-1.7-15.6v-27.1c0-8.1-.4-9.5-2-10.8-.7-.7-2.4-1.3-4.8-1.7v-2.7c3.3.4 9.2.7 12.5.7 5.7 0 9.2 0 12.9-.7v3.1c-2.4 0-4 .7-5.5 2-1.7 1.7-1.7 4.8-1.7 13.6v24c0 14.3 1.3 23.5 17.3 23.5 16.3 0 17.3-9.5 17.3-24v-26.4c0-8.1-.4-9.5-2-10.8-1.1-.7-2.7-1.3-4.8-1.7V168c3.1 0 7.1.4 11.2.4 3.7 0 7.5 0 11.9-.7v3.1c-2.4 0-4 .7-5.5 2-1.7 1.7-1.7 4.8-1.7 13.6v20.4c0 6.4 0 13.6-2 19.3-3.2 8.7-11.4 13.1-25.6 13.1zm96.7-3.1c2.7-.4 4.4-.7 5.7-2 1.7-1.7 1.7-5.7 1.7-14.6v-14.3c0-6.1 0-9.2-1.1-10.5-.7-1.1-2-1.7-5.7-2v-3.1c2 .4 7.5-.4 11.5-1.1 2-.4 4-1.1 5.5-1.7l1.1 1.1c-.4 3.3-.4 10.5-.4 20v14.6c0 6.8.4 9.9 1.1 11.2 1.1 1.3 3.1 2.4 6.1 2.4v2.4c-2.7-.4-7.9-.4-12.3-.4-5.1 0-10.5.4-13.2.7zm12.5-58c-4 0-6.4-2.4-6.4-6.1 0-3.7 2.7-6.4 6.8-6.4 4 0 6.4 2.4 6.4 6.1-.1 4-2.8 6.4-6.8 6.4zm201.9 58c2.7-.4 4.4-.7 5.7-2 1.7-1.7 1.7-5.7 1.7-14.6v-14.3c0-6.1 0-9.2-1.1-10.5-.7-1.1-2-1.7-5.7-2v-3.1c2 .4 7.5-.4 11.5-1.1 2-.4 4.4-1.1 5.5-1.7l1.1 1.1c-.4 3.3-.4 10.5-.4 20v14.6c0 6.8.4 9.9 1.1 11.2 1.1 1.3 3.1 2.4 6.1 2.4v2.4c-3.1-.4-8.1-.4-12.5-.4-5.1 0-10.5.4-13.2.7v-2.7zm12.5-58c-4 0-6.4-2.4-6.4-6.1 0-3.7 2.7-6.4 6.8-6.4 4 0 6.4 2.4 6.4 6.1 0 4-2.8 6.4-6.8 6.4zm-53.6 58.7c0-5.1-.4-10.5-.7-13.2h3.3c0 2.7.7 5.1 2 6.4 2 2.4 4.4 3.3 8.8 3.3h.7c5.5 0 8.5-2.4 8.5-7.1 0-3.7-2.4-5.5-6.4-7.9l-7.1-4.4c-3.7-2.4-8.1-5.7-8.1-12.9 0-5.7 2.4-10.1 7.1-12.5 3.1-1.7 7.9-1.7 10.1-1.7 4 0 9.9.7 13.2 1.3-.4 1.3-.4 4.8-.4 6.1 0 1.1 0 5.7.4 6.8h-3.3c0-2-.7-4-2-5.7-1.3-1.7-4.4-2.7-8.1-2.7-5.1 0-7.9 2-7.9 6.4 0 3.3 2.7 5.1 5.1 6.8h.4l6.8 4c4.4 2.7 10.1 6.1 10.1 13.9 0 13.2-12.3 15.2-19.3 15.2-4-.1-8.4-.4-13.2-2.1zm106.5-3.3c-1.7 1.7-5.5 5.7-13.6 5.7-7.9 0-12.3-2.7-13.9-9.2-.7-2.4-.7-7.5-.7-10.1v-25.3h-6.8v-2c2.7-1.1 4.4-2 6.4-3.3 3.7-3.1 6.4-6.8 9.5-12.3h2.4v11.2h16.9v6.1h-16.9v26.4c0 7.9 1.3 12.5 8.8 12.5 3.3 0 5.7-1.1 7.1-2zM245.2 188c-1.1 0-3.3 0-4.8.4-2.7 0-5.5.4-7.5.4-3.7 0-9.2-.4-10.8-.4v3.1c.7 0 3.3-.4 5.1 3.1.7 1.3 1.1 2.4 1.3 3.1.4.7.7 1.3.7 1.7l16.3 40.7 5.1-1.1 18-40c0-.4.4-.7.7-1.3.4-.4.4-1.1 1.7-3.1 1.1-2 3.3-3.1 5.1-3.1v-3.1c-2 0-6.4.4-9.9.4-1.7 0-3.3 0-5.1-.4-1.3 0-3.3-.4-4.8-.4v2.7c1.7 0 3.3.7 4 1.3.4.4 1.1 1.3 1.1 2 0 1.1-.4 2-1.3 5.1l-9.9 24c-.4-1.3-1.1-3.3-2-6.1l-6.8-18c-1.1-2.7-1.3-3.7-1.3-5.1 0-.7 0-1.3.7-1.7 1.1-1.1 2.7-1.7 4.4-1.7v-2.7zm-110.8 2c2.7.4 6.4 0 10.1-.7 3.1-.7 4.4-1.1 6.8-2l1.1.7v4c2.4-2 7.9-4.8 14.6-4.8 9.2 0 14.9 4.4 16.7 11.9.4 2 .7 6.4.7 9.2v14.6c0 8.1.4 10.5 2 12.3.7.7 2.7 1.3 4.8 1.3v2.4c-3.3 0-9.2-.4-12.5-.4-4.8 0-9.9.4-12.5.7v-2.4c2.4-.4 4-1.1 5.1-1.7 1.3-1.3 1.7-4.4 2-10.5v-8.8c0-3.7 0-7.9-.4-11.5-.7-6.4-4-9.5-10.5-9.5-4.4 0-7.5 1.1-9.5 2v26.6c0 8.1.4 10.5 2 12.3.7.7 2.7 1.3 4.8 1.3v2.4c-4.4-1.1-9.5-1.1-12.9-1.1-6.8 0-8.8 0-12.5.7v-2.4c2 0 4.4-.7 5.5-2 1.3-1.7 1.7-6.1 1.7-14.6v-14.3c0-6.1 0-8.8-1.1-10.1-.7-1.1-2.4-2-5.7-1.7v-3.8h-.3zm164.8 49.2c-15.2 0-23.5-8.8-23.5-24.8 0-2.7.7-27.5 23.7-27.5 6.8 0 12.9 2.7 15.6 7.5 3.1 4.8 3.3 9.5 3.3 13.6v3.1h-31.5c0 2.7.4 4.8.7 6.4 1.7 9.9 7.1 14.6 16.7 14.6 5.5 0 8.8-1.1 11.9-3.1l1.3 2.4c-3.2 4.5-10 7.8-18.2 7.8zM287 205.3h19.6c0-6.1-1.1-12.9-9.9-12.9-7.7.4-9.3 7.7-9.7 12.9z" fill="#8c1515"/></svg>
